<svg id="Layer_3" enable-background="new 0 0 64 64" height="512" viewBox="0 0 64 64" width="512" xmlns="http://www.w3.org/2000/svg"><g><path d="m54 62c-3.314 0-6-2.686-6-6v-50h12v50c0 3.314-2.686 6-6 6z" fill="#c7e2fc"/><path d="m48 40.158c5.837-4.955 9.546-12.341 9.546-20.598 0-4.944-1.335-9.574-3.654-13.561h-5.892z" fill="#ebf7fe"/><path d="m60 26v30c0 3.314-2.686 6-6 6-3.314 0-6-2.686-6-6v-28l2.297-1.532c.458-.305.997-.468 1.548-.468.74 0 1.449.294 1.972.817l.366.366c.523.523 1.233.817 1.972.817.551 0 1.089-.163 1.547-.468z" fill="#c66b60"/><path d="m48 40.158c3.754-3.186 6.623-7.378 8.195-12.161-.013 0-.026.003-.039.003-.74 0-1.449-.294-1.972-.817l-.366-.366c-.524-.523-1.234-.817-1.973-.817-.551 0-1.089.163-1.547.468l-2.298 1.532z" fill="#e47c6e"/><path d="m60 6h-12c-1.105 0-2-.895-2-2 0-1.105.895-2 2-2h12c1.105 0 2 .895 2 2 0 1.105-.895 2-2 2z" fill="#c7e2fc"/><path d="m51.05 2h-3.05c-1.105 0-2 .895-2 2s.895 2 2 2h5.896c-.827-1.421-1.782-2.758-2.846-4z" fill="#ebf7fe"/><circle cx="53" cy="20" fill="#e47c6e" r="2"/><path d="m30 6h-12c-1.105 0-2-.895-2-2 0-1.105.895-2 2-2h12c1.105 0 2 .895 2 2 0 1.105-.895 2-2 2z" fill="#c7e2fc"/><path d="m24.53 6c-.653-1.385-1.394-2.719-2.213-4h-4.317c-1.105 0-2 .895-2 2s.895 2 2 2z" fill="#ebf7fe"/><path d="m42.8 62h-37.6c-1.767 0-3.2-1.433-3.2-3.2 0-.525.129-1.042.376-1.506l13.859-25.985c1.159-2.173 1.765-4.597 1.765-7.059v-18.25h12v18.25c0 2.462.606 4.886 1.765 7.059l13.859 25.985c.247.464.376.981.376 1.506 0 1.767-1.433 3.2-3.2 3.2z" fill="#c7e2fc"/><path d="m3.523 55.145c14.182-4.752 24.407-18.137 24.407-33.92 0-5.446-1.222-10.605-3.399-15.225h-6.531v18.25c0 2.462-.606 4.886-1.765 7.059z" fill="#ebf7fe"/><path d="m35.26 37.862 10.364 19.432c.247.464.376.981.376 1.506 0 1.767-1.433 3.2-3.2 3.2h-37.6c-1.767 0-3.2-1.433-3.2-3.2 0-.525.129-1.042.376-1.506l9.115-17.091 3.815-1.526c1.119-.447 2.313-.677 3.518-.677h.94c1.471 0 2.921.342 4.236 1 1.315.658 2.766 1 4.236 1h.528c1.471 0 2.921-.342 4.236-1l2.277-1.147z" fill="#758190"/><path d="m23.356 38.723c-1.14-.467-2.356-.723-3.592-.723h-.94c-1.205 0-2.399.23-3.518.677l-3.815 1.526s-6.217 11.656-7.969 14.942c8.47-2.838 15.523-8.752 19.834-16.422z" fill="#8892a0"/><circle cx="25" cy="26" fill="#c1c8d1" r="2"/><circle cx="22" cy="33" fill="#c1c8d1" r="2"/><g><path d="m36 56h2v2h-2z" fill="#c1c8d1"/></g><g><path d="m34 52h2v2h-2z" fill="#c1c8d1"/></g><g><path d="m30 54h2v2h-2z" fill="#c1c8d1"/></g><g><path d="m55 54h2v2h-2z" fill="#e47c6e"/></g><g><path d="m54 47h2v2h-2z" fill="#e47c6e"/></g><g><path d="m51 51h2v2h-2z" fill="#e47c6e"/></g><g><path d="m24 47h2v2h-2z" fill="#c1c8d1"/></g><g><path d="m20 49h2v2h-2z" fill="#c1c8d1"/></g><g><path d="m7 56h2v2h-2z" fill="#c1c8d1"/></g><g><path d="m9 52h2v2h-2z" fill="#c1c8d1"/></g><g><path d="m13 54h2v2h-2z" fill="#c1c8d1"/></g><path d="m5.2 63h37.6c2.315 0 4.2-1.884 4.201-4.2 0-.687-.171-1.371-.495-1.976l-13.859-25.986c-1.078-2.02-1.647-4.298-1.647-6.589v-17.434c1.161-.415 2-1.514 2-2.815 0-1.654-1.346-3-3-3h-12c-1.655 0-3 1.345-3 3 0 1.302.839 2.401 2 2.815v17.434c0 2.29-.57 4.568-1.648 6.589l-13.858 25.984c-.323.606-.494 1.29-.494 1.977 0 1.122.436 2.177 1.229 2.97.794.793 1.849 1.231 2.971 1.231zm12.799-60h12c.552 0 1 .449 1 1s-.448.999-1 .999h-11.999-.001c-.551 0-.999-.448-.999-.999 0-.552.448-1 .999-1zm-.882 28.779c1.232-2.309 1.883-4.913 1.883-7.53v-17.25h10v17.25c0 2.618.651 5.221 1.882 7.53l3.015 5.654-1.345.673c-1.17.584-2.48.894-3.789.894h-.528c-1.308 0-2.619-.309-3.789-.894-1.447-.724-3.066-1.106-4.683-1.106h-.94c-1.339 0-2.647.252-3.889.75l-1.273.509zm-13.858 25.985 8.943-16.769 3.476-1.39c1.004-.402 2.063-.606 3.146-.606h.94c1.308 0 2.618.31 3.789.895 1.446.723 3.065 1.105 4.683 1.105h.528c1.617 0 3.236-.382 4.683-1.105l1.392-.696 9.902 18.567c.169.317.259.675.259 1.034 0 1.213-.988 2.2-2.201 2.2h-37.599c-.588 0-1.14-.229-1.556-.645s-.644-.967-.644-1.555c0-.36.089-.717.259-1.035z"/><path d="m47 6.815v49.185c0 3.859 3.141 7 7 7s7-3.14 7-7v-49.185c1.161-.415 2-1.514 2-2.815 0-1.654-1.346-3-3-3h-12c-1.655 0-3 1.345-3 3 0 1.302.838 2.401 2 2.815zm12 18.649-1.853 1.235c-.69.463-1.669.365-2.258-.224l-.366-.366c-1.247-1.246-3.313-1.45-4.782-.474l-.741.496v-19.132h10zm-5 35.536c-2.757 0-5-2.243-5-5v-27.465l1.852-1.235c.693-.461 1.669-.366 2.258.224l.366.366c.716.715 1.667 1.109 2.68 1.109.751 0 1.478-.22 2.103-.636l.741-.495v28.132c0 2.756-2.243 5-5 5zm-6.001-58h12c.552 0 1 .449 1 1s-.448.999-1 .999h-11.999c-.552 0-1-.448-1-.999 0-.552.448-1 .999-1z"/><path d="m22 35.999c1.654 0 3-1.346 3-3s-1.346-3-3-3-3 1.346-3 3 1.346 3 3 3zm0-3.999c.551 0 1 .448 1 1 0 .551-.448 1-1 1s-1-.448-1-1 .448-1 1-1z"/><path d="m25 28.999c1.654 0 3-1.346 3-3s-1.346-3-3-3-3 1.346-3 3 1.346 3 3 3zm0-3.999c.551 0 1 .448 1 1 0 .551-.448 1-1 1s-1-.448-1-1 .448-1 1-1z"/><path d="m53 22.999c1.654 0 3-1.346 3-3s-1.346-3-3-3-3 1.346-3 3 1.346 3 3 3zm0-3.999c.551 0 1 .448 1 1 0 .551-.448 1-1 1s-1-.448-1-1 .448-1 1-1z"/><path d="m36 56h2v2h-2z"/><path d="m34 52h2v2h-2z"/><path d="m30 54h2v2h-2z"/><path d="m55 54h2v2h-2z"/><path d="m54 47h2v2h-2z"/><path d="m51 51h2v2h-2z"/><path d="m24 47h2v2h-2z"/><path d="m20 49h2v2h-2z"/><path d="m7 56h2v2h-2z"/><path d="m9 52h2v2h-2z"/><path d="m13 54h2v2h-2z"/></g></svg>